<svg xmlns="http://www.w3.org/2000/svg" viewBox="0 0 24 24"><path fill="currentColor" d="M20.5 3.5A11.8 11.8 0 0 0 1.9 17.8L.3 23.7l6-1.6a11.8 11.8 0 0 0 14.2-18.6ZM12 21.7a9.8 9.8 0 0 1-5-1.4l-.4-.2-3.6 1 1-3.5-.2-.4A9.8 9.8 0 1 1 12 21.7Zm5.4-7.3c-.3-.1-1.7-.8-2-.9-.3-.1-.5-.1-.7.2l-1 1.2c-.2.2-.4.2-.7.1-1.8-.7-3.1-2.4-3.5-3-.2-.3 0-.5.1-.6l.5-.6.3-.5c.1-.2 0-.4 0-.5L9.5 7.9c-.2-.5-.5-.4-.7-.4h-.6c-.2 0-.5.1-.8.4-.3.4-1 1-1 2.5s1 2.9 1.2 3.1c.1.2 2 3.1 5 4.3 2.9 1.2 2.9.8 3.4.8.5 0 1.7-.7 1.9-1.3.3-.7.3-1.2.2-1.3-.1-.2-.3-.2-.7-.4Z"/></svg>
